PathFileType	4	(X/Y/Z)	 s10c0303.trc
DataRate	CameraRate	NumFrames	NumMarkers	Units	OrigDataRate	OrigDataStartFrame	OrigNumFrames
200	200	5	50	mm	200	1001	2000
Frame#	Time	racr			lacr			c7			jug			rlel			rdr			llel			ldr			s2			lic			ric			lasi			rasi			rpsi			lpsi			rgt			lgt			rth1			rth2			rth3			rth4			rlfc			rmfc			rsh1			rsh2			rsh3			rsh4			rlmal			rmmal			rcal			rtoe			rmt5			lth1			lth2			lth4			lth3			llfc			lmfc			llmal			lmmal			lcal			lmt5			lsh1			lsh2			lsh3			lsh4			ltoe			SBIKE			LBIKE			RBIKE			
		X1	Y1	Z1	X2	Y2	Z2	X3	Y3	Z3	X4	Y4	Z4	X5	Y5	Z5	X6	Y6	Z6	X7	Y7	Z7	X8	Y8	Z8	X9	Y9	Z9	X10	Y10	Z10	X11	Y11	Z11	X12	Y12	Z12	X13	Y13	Z13	X14	Y14	Z14	X15	Y15	Z15	X16	Y16	Z16	X17	Y17	Z17	X18	Y18	Z18	X19	Y19	Z19	X20	Y20	Z20	X21	Y21	Z21	X22	Y22	Z22	X23	Y23	Z23	X24	Y24	Z24	X25	Y25	Z25	X26	Y26	Z26	X27	Y27	Z27	X28	Y28	Z28	X29	Y29	Z29	X30	Y30	Z30	X31	Y31	Z31	X32	Y32	Z32	X33	Y33	Z33	X34	Y34	Z34	X35	Y35	Z35	X36	Y36	Z36	X37	Y37	Z37	X38	Y38	Z38	X39	Y39	Z39	X40	Y40	Z40	X41	Y41	Z41	X42	Y42	Z42	X43	Y43	Z43	X44	Y44	Z44	X45	Y45	Z45	X46	Y46	Z46	X47	Y47	Z47	X48	Y48	Z48	X49	Y49	Z49	X50	Y50	Z50	
1001	5.0050	660.945564	1336.246535	-44.192258	709.700808	1297.018333	-325.441328	668.054840	1331.776748	-183.864962	666.466412	1194.178374	-167.467182	597.683428	1080.302755	53.439081	648.189537	872.939358	-14.266593	602.512061	1067.495541	-485.418349	666.925287	887.351937	-373.972193	129.135318	1157.231662	-179.725479	277.118705	1146.590338	-338.622509	320.016088	1137.525235	-56.363559	287.768128	1067.111308	-316.919146	321.578012	1056.848318	-63.886595	189.482539	1201.430834	-133.459167	181.306958	1216.792280	-242.560247	212.410767	1047.556055	-2.685396	152.795678	1041.126274	-376.542096	264.750548	903.156892	15.421180	316.416757	832.712895	-2.227739	327.873292	748.355210	-5.128281	348.687902	848.820107	-12.317491	358.904680	644.141729	-19.223014	355.247478	637.330650	-134.660667	255.997406	585.810813	8.010489	209.115720	512.171195	-9.871164	133.674608	471.726236	-18.585947	232.798940	493.517563	-34.308273	53.122532	404.634714	-38.580862	79.919461	400.492908	-118.808957	26.028049	448.327104	-88.041291	77.353942	209.054268	-100.783677	26.934097	275.427752	-36.964343	240.280750	944.014089	-396.228768	323.003358	918.195100	-390.216208	341.896551	947.979661	-380.603722	382.667822	852.402696	-390.225299	481.141453	785.788439	-375.153786	487.448109	774.411130	-253.666823	270.503763	455.737468	-375.264362	281.264228	459.724768	-294.297626	204.897769	435.891447	-333.986759	361.359352	345.607513	-383.193785	407.595532	685.115235	-404.227306	388.332585	600.408550	-392.162824	325.928572	536.999697	-391.346147	412.929907	590.254905	-365.211529	436.629699	359.599068	-324.977804	-203.895849	831.266868	-224.622365	-78.150281	81.989547	-423.681335	-102.592422	80.787866	-24.422064	
1002	5.0100	662.633057	1336.558673	-43.337803	707.844232	1296.883951	-324.912950	667.996292	1331.817290	-183.407805	665.613292	1194.163921	-166.720637	599.242238	1080.483713	54.373407	648.160880	873.036712	-14.282115	600.652532	1067.239643	-484.627828	666.614988	886.415117	-372.363996	129.439546	1157.271129	-182.313191	279.082818	1145.391073	-339.539271	318.029340	1138.109760	-56.699532	289.105531	1066.380548	-317.627017	318.364607	1056.948853	-66.137344	188.364114	1201.796438	-136.104620	181.915872	1216.274085	-245.008404	211.126137	1047.983162	-4.629407	153.224124	1040.823609	-377.996599	266.059172	904.826492	14.231762	319.167945	835.327340	-2.767679	332.207776	751.259126	-5.632579	351.025304	852.084661	-12.567611	365.873390	647.556235	-19.533612	361.436969	642.723423	-135.089208	262.261031	589.932081	8.049460	213.404569	517.831785	-10.394376	136.383678	479.604773	-19.239004	236.108859	499.110855	-35.512303	53.899413	414.749186	-38.796431	82.294724	410.430828	-118.350179	27.248188	458.719274	-87.963715	75.363353	218.802331	-100.946261	25.900970	286.107704	-37.108376	239.011564	941.433483	-398.115480	320.616381	912.735833	-391.089407	340.258761	941.582234	-380.610266	377.933961	844.891130	-390.567511	474.881379	773.274653	-374.605756	481.190333	762.580831	-254.211992	268.056356	441.456592	-375.229426	277.997907	445.983946	-293.980596	202.224587	420.109709	-333.991032	361.448405	334.589542	-383.275047	402.999021	671.238304	-404.187527	384.441991	586.810095	-391.749334	322.809923	522.468324	-391.033159	408.635857	577.092401	-363.728243	436.326175	351.190625	-325.287051	-203.846556	831.272726	-224.708467	-78.142080	81.986781	-423.701770	-102.607109	80.782732	-24.437330	
1003	5.0150	664.138301	1336.853907	-42.431271	705.969390	1296.924503	-324.421263	667.801546	1331.875648	-182.887459	665.007844	1194.153570	-165.914596	600.721361	1080.657070	55.543740	648.133708	873.132706	-14.286853	598.987094	1067.018236	-483.581528	666.874324	886.695840	-373.517966	129.915785	1157.124308	-185.137472	281.262791	1144.049377	-340.475222	316.113789	1138.390622	-57.158192	290.492964	1065.264369	-318.322038	317.241158	1057.084945	-66.967776	187.828314	1201.461350	-139.218408	182.696037	1215.433211	-247.428321	210.492284	1048.027138	-7.006365	153.672689	1040.131089	-379.236140	266.776199	906.201225	13.157412	321.780559	837.810703	-3.271224	336.491338	754.156680	-5.989700	353.364646	855.424025	-12.679885	372.496348	650.998269	-19.684341	367.052608	647.900969	-135.774959	268.145476	594.159534	7.760428	217.539364	523.364783	-10.853589	139.288847	487.496428	-19.391951	239.281848	504.606391	-36.693685	54.700476	425.207194	-39.039371	85.669891	420.856718	-117.543906	28.417066	469.314728	-88.115272	74.193299	229.158312	-100.968318	25.430989	296.978213	-37.135134	237.809993	938.357683	-399.715088	318.235362	906.767598	-391.853428	338.851838	934.982323	-381.503503	373.059524	836.945748	-390.815962	468.188104	760.435992	-373.799318	474.670354	750.421328	-254.961117	265.183226	427.181702	-375.007803	274.634818	432.187480	-293.321487	199.422804	404.549845	-333.875831	361.007132	323.357131	-383.390479	398.047871	657.687486	-404.464655	380.138820	572.555588	-390.353590	319.313615	507.755411	-390.481477	403.802515	563.768492	-362.150370	435.426781	342.194897	-325.522190	-203.824894	831.299416	-224.716136	-78.138401	81.966447	-423.670906	-102.604659	80.745822	-24.443382	
1004	5.0200	665.538207	1337.191559	-41.450751	704.138257	1297.087565	-324.014883	667.476699	1331.964895	-182.332001	664.885775	1194.156695	-165.043261	602.133168	1080.818609	56.875807	647.739750	873.531812	-14.542267	597.435216	1066.826372	-482.361395	666.527991	885.824803	-371.731047	130.097437	1156.371286	-187.265324	283.636254	1142.533615	-341.279437	314.253664	1138.534986	-57.595487	291.877791	1063.887999	-319.081836	316.221520	1056.863157	-68.069279	187.038912	1201.084157	-141.832597	183.660829	1214.096584	-249.575745	208.802007	1047.762874	-9.210666	154.353729	1039.072031	-380.513992	267.655978	907.682986	12.066920	324.360300	840.562291	-3.476900	340.213080	756.978349	-6.271277	355.572496	858.430914	-12.871898	378.876867	654.380598	-19.626776	372.288995	652.820404	-136.153870	273.965713	598.417707	7.682999	221.320238	529.229163	-11.415286	142.177931	495.475583	-19.370971	241.879085	510.531930	-37.866008	55.690451	435.961173	-39.237371	85.769957	430.113246	-118.884810	29.674361	480.334435	-88.718649	73.983419	239.800393	-101.095956	25.673440	307.906034	-37.168836	236.576947	934.983106	-401.247908	315.829755	900.371272	-392.524530	337.544532	927.914356	-382.375732	367.943198	828.714855	-390.889817	460.989800	747.363775	-372.963636	468.003619	737.845146	-255.247384	262.107523	413.154379	-374.884225	271.124979	419.645447	-293.302418	196.640183	390.444804	-335.206406	359.858299	312.177041	-383.565705	392.466740	642.746984	-402.889317	375.306740	558.382081	-389.127665	315.897830	492.188868	-388.906093	398.512856	550.263384	-360.283747	434.142179	333.512037	-326.222530	-203.778715	831.282530	-224.758339	-78.134532	81.955042	-423.679467	-102.607369	80.721857	-24.457986	
1005	5.0250	666.889941	1337.457184	-40.289844	702.374819	1297.247686	-323.644125	667.065200	1331.995990	-181.842850	665.107054	1194.082591	-164.263611	603.490278	1080.919397	58.330676	647.658085	873.590404	-14.574253	596.037969	1066.588225	-480.976260	666.547562	885.913458	-372.362553	130.401585	1155.543929	-189.653865	286.007879	1140.867500	-341.962038	312.429326	1138.428435	-58.015792	293.260747	1062.389403	-319.937205	315.244560	1056.520156	-70.436975	186.242242	1201.072852	-142.832123	184.520535	1212.904072	-251.959059	208.750414	1047.696720	-10.775094	155.204998	1037.484448	-381.762995	268.757071	909.270770	10.993524	326.683105	842.989410	-3.862512	343.990978	759.662962	-6.361847	357.557829	861.319271	-13.229168	384.904879	657.758684	-19.458474	376.957741	657.482464	-136.510760	279.662781	602.736633	7.392122	226.998484	535.737062	-9.906602	144.998037	503.467921	-19.423202	245.314375	516.499070	-38.093289	56.713852	446.938602	-39.441358	86.589797	440.703307	-119.373017	30.825991	491.347187	-89.006169	74.693007	250.689314	-101.137642	26.468106	319.043327	-37.221837	235.727489	931.058934	-402.349323	313.537268	893.551261	-393.176105	336.242239	920.309564	-383.236893	362.846988	819.876693	-390.834883	453.215089	734.336460	-372.169706	460.369375	724.830712	-255.793529	258.681041	399.570788	-374.539033	270.139989	406.836080	-287.273059	193.316553	375.574039	-334.570428	358.127080	301.098013	-383.671592	386.364476	628.951840	-402.324878	370.180376	544.508588	-388.245812	311.413262	477.105956	-388.053551	392.743184	536.651640	-358.100250	431.985210	324.077008	-326.424583	-203.748068	831.289228	-224.811918	-78.121354	81.954176	-423.697255	-102.608979	80.731898	-24.449609	
